<svg width="36" height="39" viewBox="0 0 36 39" fill="none" xmlns="http://www.w3.org/2000/svg">
<path d="M18 0.0659485C13.245 0.129958 8.70174 2.15222 5.33912 5.70152C1.97653 9.25084 0.060642 14.0463 0 19.0654C0.02223 21.9892 0.683496 24.8682 1.93232 27.4781C3.18114 30.0881 4.98382 32.3587 7.2 34.1129V34.2649H7.38C10.4277 36.7301 14.1603 38.0659 18 38.0659C21.8398 38.0659 25.5722 36.7301 28.62 34.2649H28.8V34.1129C31.0162 32.3587 32.8189 30.0881 34.0677 27.4781C35.3165 24.8682 35.9779 21.9892 36 19.0654C35.9393 14.0463 34.0234 9.25084 30.6608 5.70152C27.2983 2.15222 22.7551 0.129958 18 0.0659485ZM10.926 32.232C11.1888 30.9617 11.8551 29.8246 12.8143 29.0089C13.7736 28.1935 14.9683 27.7485 16.2 27.7481H19.8C21.0317 27.7485 22.2264 28.1935 23.1856 29.0089C24.1448 29.8246 24.8112 30.9617 25.074 32.232C22.93 33.5635 20.4876 34.2657 18 34.2657C15.5124 34.2657 13.07 33.5635 10.926 32.232ZM28.098 29.7811C27.4133 28.0538 26.2604 26.5789 24.784 25.5411C23.3077 24.5034 21.5737 23.9492 19.8 23.9482H16.2C14.4263 23.9492 12.6923 24.5034 11.2159 25.5411C9.73958 26.5789 8.58667 28.0538 7.902 29.7811C6.55319 28.3808 5.47902 26.7136 4.74086 24.875C4.00271 23.0364 3.61503 21.0622 3.6 19.0654C3.64669 15.0495 5.17882 11.212 7.86929 8.37218C10.5598 5.53231 14.1954 3.91512 18 3.86583C21.8047 3.91512 25.4403 5.53231 28.1308 8.37218C30.8212 11.212 32.3534 15.0495 32.4 19.0654C32.3849 21.0622 31.9973 23.0364 31.2592 24.875C30.521 26.7136 29.4467 28.3808 28.098 29.7811Z" fill="#5B4646"/>
<path d="M18 7.66589C17.0484 7.6425 16.1023 7.82309 15.2187 8.19672C14.3351 8.57036 13.5325 9.1293 12.8595 9.83973C12.1864 10.5501 11.6569 11.3973 11.3029 12.3299C10.9489 13.2625 10.7778 14.2613 10.8 15.2657C10.7778 16.27 10.9489 17.2688 11.3029 18.2015C11.6569 19.134 12.1864 19.9812 12.8595 20.6916C13.5325 21.4019 14.3351 21.9609 15.2187 22.3346C16.1023 22.7083 17.0484 22.8888 18 22.8655C18.9515 22.8888 19.8978 22.7083 20.7814 22.3346C21.6648 21.9609 22.4674 21.4019 23.1405 20.6916C23.8137 19.9812 24.343 19.134 24.6971 18.2015C25.0512 17.2688 25.2222 16.27 25.2 15.2657C25.2222 14.2613 25.0512 13.2625 24.6971 12.3299C24.343 11.3973 23.8137 10.5501 23.1405 9.83973C22.4674 9.1293 21.6648 8.57036 20.7814 8.19672C19.8978 7.82309 18.9515 7.6425 18 7.66589ZM18 19.0656C17.521 19.0899 17.0426 19.0084 16.5955 18.8262C16.1482 18.6438 15.7419 18.3647 15.403 18.0069C15.0639 17.649 14.7996 17.2204 14.6268 16.7482C14.4542 16.2761 14.3769 15.7711 14.4 15.2657C14.3769 14.7602 14.4542 14.2552 14.6268 13.7831C14.7996 13.311 15.0639 12.8823 15.403 12.5244C15.7419 12.1666 16.1482 11.8875 16.5955 11.7052C17.0426 11.5229 17.521 11.4413 18 11.4658C18.4788 11.4413 18.9573 11.5229 19.4046 11.7052C19.8519 11.8875 20.2579 12.1666 20.5971 12.5244C20.936 12.8823 21.2004 13.311 21.3732 13.7831C21.5458 14.2552 21.6232 14.7602 21.6 15.2657C21.6232 15.7711 21.5458 16.2761 21.3732 16.7482C21.2004 17.2204 20.936 17.649 20.5971 18.0069C20.2579 18.3647 19.8519 18.6438 19.4046 18.8262C18.9573 19.0084 18.4788 19.0899 18 19.0656Z" fill="#5B4646"/>
</svg>
