<svg width="37" height="36" viewBox="0 0 37 36" fill="none" xmlns="http://www.w3.org/2000/svg">
<path d="M10.9986 0H26.1186C31.8844 0 36.5586 4.67415 36.5586 10.44V25.56C36.5586 31.3259 31.8844 36 26.1186 36H10.9986C5.23274 36 0.558594 31.3259 0.558594 25.56V10.44C0.558594 4.67415 5.23274 0 10.9986 0ZM10.6386 3.59997C7.05978 3.59997 4.15859 6.50117 4.15859 10.08V25.92C4.15859 29.4988 7.05978 32.4 10.6386 32.4H26.4786C30.0574 32.4 32.9586 29.4988 32.9586 25.92V10.08C32.9586 6.50117 30.0574 3.59997 26.4786 3.59997H10.6386ZM28.0086 6.29997C29.2513 6.29997 30.2586 7.30734 30.2586 8.54997C30.2586 9.79262 29.2513 10.8 28.0086 10.8C26.7659 10.8 25.7586 9.79262 25.7586 8.54997C25.7586 7.30734 26.7659 6.29997 28.0086 6.29997ZM18.5586 8.99997C23.5291 8.99997 27.5586 13.0294 27.5586 18C27.5586 22.9705 23.5291 27 18.5586 27C13.588 27 9.55859 22.9705 9.55859 18C9.55859 13.0294 13.588 8.99997 18.5586 8.99997ZM18.5586 12.6C15.5762 12.6 13.1586 15.0177 13.1586 18C13.1586 20.9824 15.5762 23.4 18.5586 23.4C21.541 23.4 23.9586 20.9824 23.9586 18C23.9586 15.0177 21.541 12.6 18.5586 12.6Z" fill="white"/>
</svg>
