<svg width="36" height="36" viewBox="0 0 36 36" fill="none" xmlns="http://www.w3.org/2000/svg">
<path d="M1.5 3.75H4.65424C5.13263 3.75 5.37183 3.75 5.56628 3.83674C5.73771 3.91321 5.88415 4.03638 5.98886 4.19217C6.10763 4.36888 6.14862 4.60454 6.23058 5.07585L6.91304 9M6.91304 9L8.49173 18.0774C8.67091 19.1077 8.76049 19.6228 9.02583 19.9939C9.25945 20.3207 9.58606 20.5695 9.96311 20.708C10.3913 20.8654 10.9118 20.815 11.9526 20.7143L29.3582 19.0298C30.3796 18.931 30.8902 18.8816 31.2762 18.6509C31.6161 18.4477 31.888 18.1482 32.0575 17.7902C32.25 17.3839 32.25 16.8708 32.25 15.8447V12.8567C32.25 11.7662 32.25 11.2209 32.04 10.7995C31.8552 10.4288 31.5598 10.1245 31.1947 9.92885C30.7797 9.70648 30.2347 9.69035 29.1447 9.65808L6.91304 9Z" stroke="#5B4646" stroke-width="1.8" stroke-linecap="round" stroke-linejoin="round"/>
<circle cx="12.75" cy="28.5" r="3" stroke="#5B4646" stroke-width="1.8"/>
<ellipse cx="27" cy="28.5" rx="3" ry="3" stroke="#5B4646" stroke-width="1.8"/>
</svg>
