<svg width="36" height="37" viewBox="0 0 36 37" fill="none" xmlns="http://www.w3.org/2000/svg">
<path d="M36 4.9285C34.6755 5.65136 33.252 6.13988 31.7582 6.35955C33.2828 5.23478 34.4541 3.45377 35.0055 1.33147C33.5782 2.37305 31.9977 3.12935 30.3153 3.53683C28.9681 1.77054 27.0487 0.666992 24.9243 0.666992C20.8455 0.666992 17.5383 4.73599 17.5383 9.75498C17.5383 10.4673 17.6037 11.1609 17.7297 11.8261C11.5913 11.4471 6.149 7.82894 2.50629 2.33043C1.87049 3.67267 1.50626 5.23383 1.50626 6.89942C1.50626 10.0525 2.81012 12.8342 4.79198 14.4641C3.58138 14.4167 2.44239 14.008 1.44668 13.3273C1.44598 13.3652 1.44598 13.4032 1.44598 13.4415C1.44598 17.8449 3.9919 21.518 7.37061 22.353C6.75089 22.5607 6.09838 22.6719 5.42479 22.6719C4.94888 22.6719 4.48619 22.6147 4.03514 22.5088C4.97505 26.1192 7.70265 28.747 10.9347 28.8201C8.40693 31.2579 5.22229 32.7108 1.76186 32.7108C1.1657 32.7108 0.577799 32.6676 0 32.5835C3.26857 35.1622 7.15088 36.667 11.3218 36.667C24.907 36.667 32.3361 22.8186 32.3361 10.8088C32.3361 10.4148 32.3288 10.0229 32.3145 9.633C33.7577 8.35164 35.0099 6.75104 36 4.9285Z" fill="white"/>
</svg>
