<svg width="100" height="100" viewBox="0 0 100 100" fill="none" xmlns="http://www.w3.org/2000/svg">
<path d="M4.16669 10.4167H15.3209C15.7993 10.4167 16.0385 10.4167 16.233 10.5035C16.4044 10.58 16.5508 10.7031 16.6555 10.8589C16.7743 11.0356 16.8153 11.2713 16.8973 11.7426L19.2029 25.0001M19.2029 25.0001L24.4917 55.4108C24.6709 56.4411 24.7605 56.9563 25.0258 57.3274C25.2595 57.6541 25.5861 57.903 25.9631 58.0415C26.3913 58.1988 26.9118 58.1484 27.9527 58.0477L86.6916 52.3633C87.7129 52.2644 88.2236 52.215 88.6095 51.9843C88.9494 51.7811 89.2214 51.4816 89.3909 51.1237C89.5834 50.7173 89.5834 50.2042 89.5834 49.1781V30.1901C89.5834 29.0996 89.5834 28.5543 89.3734 28.133C89.1886 27.7622 88.8932 27.4579 88.528 27.2623C88.1131 27.0399 87.5681 27.0238 86.478 26.9915L19.2029 25.0001Z" stroke="#EBE2E2" stroke-width="3" stroke-linecap="round" stroke-linejoin="round"/>
<ellipse cx="35.4166" cy="79.1666" rx="8.33333" ry="8.33333" stroke="#EBE2E2" stroke-width="3"/>
<circle cx="75" cy="79.1666" r="8.33333" stroke="#EBE2E2" stroke-width="3"/>
</svg>
